<svg width="104" height="23" viewBox="0 0 104 23" fill="none" xmlns="http://www.w3.org/2000/svg">
<line x1="92" y1="21" x2="92" y2="2" stroke="white" stroke-width="2"/>
<path d="M103.064 12.5675C103.65 11.9817 103.65 11.032 103.064 10.4462L93.5181 0.900234C92.9323 0.314448 91.9825 0.314448 91.3967 0.900234C90.8109 1.48602 90.8109 2.43577 91.3967 3.02155L99.882 11.5068L91.3967 19.9921C90.8109 20.5779 90.8109 21.5277 91.3967 22.1134C91.9825 22.6992 92.9323 22.6992 93.5181 22.1134L103.064 12.5675ZM0 11.5068V13.0068H102.003V11.5068V10.0068H0V11.5068Z" fill="white"/>
<path d="M93.4604 5.90122C93.5783 7.61076 93.6962 9.32031 93.7275 11.4389C93.7588 13.5575 93.6998 16.0334 93.7137 17.2647C93.7275 18.4959 93.8159 18.4075 94.0383 18.1409C94.6234 17.4395 95.2736 16.505 95.8381 15.6431C96.5925 14.4912 97.2654 13.3235 97.6727 12.5572C97.9867 11.9664 97.9263 11.146 97.6892 10.6364C97.4312 10.082 96.8563 9.20955 96.558 8.74599C96.2542 8.27391 95.9631 7.89837 95.6054 7.34728C95.2419 6.7873 94.7716 6.3496 94.3108 5.69534C94.2049 5.54514 94.1464 5.45642 94.0718 5.38139C93.9972 5.30636 93.9088 5.24741 93.8191 5.36442C93.546 5.72039 93.5498 6.78725 93.6382 8.16855C93.7225 9.48567 94.1151 10.335 94.2188 10.8838C94.461 12.1672 94.9449 13.7487 95.1722 14.7575C95.2649 15.1686 95.4844 13.47 95.7372 11.9087C96.2214 8.91772 95.4558 8.52359 95.1588 8.16498C95.0899 8.0817 94.9806 8.07522 94.9498 8.11898C94.8568 8.25118 95.7157 9.52217 96.8617 11.2634C97.2706 11.8847 97.3297 11.973 97.3011 12.0628C97.1479 12.544 96.5884 12.8948 96.2454 13.9063C96.1114 14.206 95.8443 14.4445 95.4286 14.8004C95.2191 15.009 95.0128 15.2742 94.7109 15.6369" stroke="white" stroke-width="2" stroke-linecap="round"/>
</svg>
