<svg width="199" height="23" viewBox="0 0 199 23" fill="none" xmlns="http://www.w3.org/2000/svg">
<path d="M198.084 12.5607C198.669 11.9749 198.669 11.0251 198.084 10.4393L188.538 0.893398C187.952 0.307612 187.002 0.307612 186.416 0.893398C185.83 1.47918 185.83 2.42893 186.416 3.01472L194.902 11.5L186.416 19.9853C185.83 20.5711 185.83 21.5208 186.416 22.1066C187.002 22.6924 187.952 22.6924 188.538 22.1066L198.084 12.5607ZM0 11.5V13H197.023V11.5V10H0V11.5Z" fill="#0F1B2F"/>
<path d="M186.512 2V21.5" stroke="#0F1B2F"/>
<path d="M189.819 6.39359C189.819 6.68536 189.819 6.97713 189.828 7.71097C189.837 8.4448 189.856 9.61187 189.874 10.286C189.907 11.498 190.095 12.3395 190.068 12.8373C190.061 12.9731 189.986 12.8611 189.894 11.9659C189.802 11.0707 189.674 9.39305 189.39 8.05468C189.105 6.7163 188.667 5.76806 188.633 5.7081C188.204 4.9511 189.413 7.58884 189.314 7.446C189.102 7.14308 188.868 6.20903 188.79 5.90372C188.769 5.81978 189.155 6.55605 189.366 7.4728C189.5 8.0548 189.559 8.90014 189.606 9.99786C189.653 11.0956 189.653 12.4268 189.617 13.2219C189.552 14.6386 189.304 15.1411 189.221 15.5558C189.146 15.9267 189.339 16.3745 189.404 16.7903C189.422 16.9061 189.871 16.4551 190.514 15.6462C191.074 14.9426 191.495 14.3907 191.605 13.4107C191.682 12.7257 191.643 11.6465 191.588 10.8187C191.497 9.43714 191.293 8.73436 191.265 8.47685C191.212 7.98081 191.127 7.38936 191.154 7.25093C191.232 6.85195 192.026 7.95632 192.727 8.88577C193.23 9.55375 193.465 9.83623 193.76 10.2418C193.956 10.5112 193.908 11.105 193.716 11.4766C193.588 11.7222 193.43 11.9736 193.164 12.3687C192.741 12.9966 192.675 13.2811 192.518 13.5762C192.364 13.8656 192.196 14.037 191.856 14.2116C191.003 14.6502 190.761 14.9576 190.547 15.1789C190.361 15.3716 190.243 15.7489 190.078 16.0534C189.821 16.5245 189.672 16.8176 189.488 17.021C189.436 17.0791 189.378 17.1492 189.304 17.1685C189.144 17.2106 189.045 16.4209 189.055 15.3071C189.061 14.4982 189.247 13.9486 189.331 13.551C189.44 13.0339 189.432 11.9637 189.322 11.2213C189.266 10.8445 189.028 10.4673 188.981 10.0144C188.954 9.87601 188.917 9.74671 188.889 9.38089C188.88 9.08802 188.88 8.57743 188.88 8.05136" stroke="#0F1B2F" stroke-width="2" stroke-linecap="round"/>
<path d="M187.773 8.14062C187.773 9.45816 187.773 10.7757 187.743 11.341C187.724 11.6911 187.632 11.6813 187.698 12.1996C187.734 12.481 187.72 12.8053 187.681 13.2726C187.642 13.7399 187.563 14.342 187.51 14.6958C187.456 15.0495 187.43 15.1368 187.417 15.6006C187.403 16.0643 187.403 16.902 187.46 17.5603C187.517 18.2187 187.63 18.6724 187.793 18.7491C188.568 19.1132 188.469 18.0035 188.57 17.8538C188.601 17.8009 188.636 17.7311 188.659 17.6821C188.681 17.633 188.69 17.6069 188.725 17.5534" stroke="#0F1B2F" stroke-width="2" stroke-linecap="round"/>
<path d="M188.118 3.96378C188.126 3.95506 188.135 3.94633 188.144 3.95492C188.252 4.06031 188.205 4.56028 188.228 4.91908C188.233 5.01262 188.25 5.42303 188.237 6.02641C188.228 6.43967 188.109 6.52825 188.096 6.58972C188.074 6.6905 188.039 5.78183 188.003 5.44551C187.955 4.98905 187.907 4.38789 187.858 4.16737C187.808 3.94269 187.827 3.84083 187.814 3.82708C187.717 3.72554 187.747 4.14807 187.739 4.31068C187.712 4.48201 187.677 4.62426 187.651 5.16603C187.642 5.65544 187.642 6.58033 187.642 7.53325" stroke="#0F1B2F" stroke-width="2" stroke-linecap="round"/>
</svg>
