<svg width="262" height="105" viewBox="0 0 262 105" fill="none" xmlns="http://www.w3.org/2000/svg">
<path d="M39.8105 19.1162C41.658 17.4472 44.5115 17.503 46.292 19.2832L50.6494 23.6406L50.8154 23.8154C52.4296 25.6013 52.4318 28.325 50.8232 30.1143L50.6572 30.29L21.1211 59.9609L50.6553 89.6357L50.8213 89.8115C52.4311 91.6006 52.4279 94.3236 50.8145 96.1094L50.6475 96.2852L46.29 100.642C44.5095 102.422 41.6561 102.478 39.8086 100.809L39.6328 100.642L2.2832 63.29C0.445564 61.4521 0.445392 58.4706 2.2832 56.6328L39.6348 19.2832L39.8105 19.1162Z" fill="#0F1B2F" stroke="#0F1B2F" stroke-width="0.19"/>
<path d="M216.431 19.1182C214.686 17.4448 211.99 17.5012 210.31 19.2861L206.203 23.6465L206.046 23.8223C204.525 25.6093 204.524 28.3326 206.039 30.123L206.195 30.2988L234.033 59.999L206.197 89.7012L206.041 89.877C204.524 91.6675 204.527 94.3907 206.048 96.1777L206.205 96.3535L210.311 100.714C211.991 102.499 214.688 102.555 216.433 100.882L216.598 100.714L251.797 63.3291C253.529 61.4897 253.529 58.5083 251.797 56.6689L216.597 19.2861L216.431 19.1182Z" fill="#0F1B2F" stroke="#0F1B2F" stroke-width="0.192188"/>
<path d="M62 97.5364L91 7" stroke="#0F1B2F" stroke-width="14" stroke-linecap="round"/>
<mask id="path-4-outside-1_439_2" maskUnits="userSpaceOnUse" x="92" y="43" width="114" height="42" fill="black">
<rect fill="white" x="92" y="43" width="114" height="42"/>
<path d="M103.985 52.041C100.169 52.253 98.0843 52.359 97.731 52.359C96.883 52.359 96.035 51.8467 95.187 50.822C94.339 49.762 93.915 48.6667 93.915 47.536C93.915 45.8047 98.95 44.939 109.02 44.939C114.179 44.939 117.977 45.469 120.415 46.529C122.853 47.589 124.072 48.8787 124.072 50.398C124.072 50.8573 123.807 51.299 123.277 51.723C122.747 52.1117 122.076 52.306 121.263 52.306C120.45 52.306 118.966 52.253 116.811 52.147C114.656 52.041 112.695 51.9703 110.928 51.935C111.069 52.359 111.14 52.8537 111.14 53.419C111.14 53.9843 110.928 55.0973 110.504 56.758C110.115 58.4187 109.55 60.733 108.808 63.701C108.066 66.6337 107.253 70.2023 106.37 74.407C105.487 78.5763 104.868 81.0673 104.515 81.88C104.197 82.6573 103.879 83.046 103.561 83.046C102.819 83.046 101.883 82.3747 100.752 81.032C99.6567 79.654 99.109 78.541 99.109 77.693C99.109 76.845 99.8333 73.347 101.282 67.199C102.731 61.0157 103.632 55.963 103.985 52.041ZM147.601 44.25C148.626 44.25 149.756 44.78 150.993 45.84C152.265 46.9 152.901 47.7657 152.901 48.437C152.901 50.663 152.371 54.532 151.311 60.044C150.286 65.5207 148.961 70.7677 147.336 75.785C145.711 80.8023 144.244 83.311 142.937 83.311C142.407 83.311 141.718 83.0283 140.87 82.463C140.022 81.8623 139.457 81.1733 139.174 80.396C138.891 79.5833 138.344 77.9227 137.531 75.414C135.658 69.6547 133.892 64.8847 132.231 61.104C131.984 62.164 131.648 63.6657 131.224 65.609C130.835 67.5523 130.517 69.0893 130.27 70.22C130.023 71.3153 129.722 72.658 129.369 74.248C129.016 75.8027 128.698 77.0393 128.415 77.958C128.168 78.8767 127.885 79.7953 127.567 80.714C127.002 82.4453 126.472 83.311 125.977 83.311C125.27 83.311 124.352 82.675 123.221 81.403C122.09 80.0957 121.525 78.9827 121.525 78.064C121.525 77.11 122.532 72.181 124.546 63.277C126.595 54.373 127.708 48.7903 127.885 46.529C127.991 45.1863 128.397 44.515 129.104 44.515C129.705 44.515 130.464 44.8683 131.383 45.575C132.337 46.2817 133.15 47.1473 133.821 48.172C134.528 49.1613 135.782 52.4297 137.584 57.977C139.386 63.5243 140.817 67.4993 141.877 69.902C143.255 65.8033 144.527 59.62 145.693 51.352C146.152 48.066 146.453 46.0697 146.594 45.363C146.735 44.621 147.071 44.25 147.601 44.25ZM179.606 66.245C179.606 67.1637 178.528 67.9233 176.373 68.524C174.677 69.0187 172.733 69.4957 170.543 69.955C168.352 70.379 166.515 70.7853 165.031 71.174C161.921 71.916 160.013 72.287 159.307 72.287C158.6 72.287 157.858 71.81 157.081 70.856C156.303 69.8667 155.915 68.9303 155.915 68.047C155.915 67.0577 157.964 66.2097 162.063 65.503C166.197 64.7963 170.702 64.443 175.578 64.443C178.263 64.443 179.606 65.0437 179.606 66.245ZM182.746 75.043C182.746 72.5697 183.523 69.849 185.078 66.881C186.633 63.913 188.664 61.369 191.173 59.249C193.717 57.129 196.208 56.069 198.646 56.069C199.883 56.069 201.155 56.8817 202.462 58.507C203.769 60.097 204.423 61.528 204.423 62.8C204.423 63.7187 203.999 64.178 203.151 64.178C202.727 64.178 202.144 63.9837 201.402 63.595C200.66 63.2063 199.9 63.012 199.123 63.012C198.346 63.012 197.233 63.6833 195.784 65.026C194.371 66.3333 193.099 67.9233 191.968 69.796C190.873 71.6333 190.325 73.082 190.325 74.142C190.325 75.202 190.519 75.891 190.908 76.209C191.332 76.527 192.321 76.686 193.876 76.686C195.466 76.686 196.897 76.5447 198.169 76.262C199.476 75.9793 200.43 75.6967 201.031 75.414C201.667 75.096 202.232 74.937 202.727 74.937C203.716 74.937 204.211 75.361 204.211 76.209C204.211 77.7637 202.851 79.3537 200.13 80.979C197.409 82.569 194.689 83.364 191.968 83.364C190.237 83.364 188.258 82.41 186.032 80.502C183.841 78.5587 182.746 76.739 182.746 75.043Z"/>
</mask>
<path d="M103.985 52.041C100.169 52.253 98.0843 52.359 97.731 52.359C96.883 52.359 96.035 51.8467 95.187 50.822C94.339 49.762 93.915 48.6667 93.915 47.536C93.915 45.8047 98.95 44.939 109.02 44.939C114.179 44.939 117.977 45.469 120.415 46.529C122.853 47.589 124.072 48.8787 124.072 50.398C124.072 50.8573 123.807 51.299 123.277 51.723C122.747 52.1117 122.076 52.306 121.263 52.306C120.45 52.306 118.966 52.253 116.811 52.147C114.656 52.041 112.695 51.9703 110.928 51.935C111.069 52.359 111.14 52.8537 111.14 53.419C111.14 53.9843 110.928 55.0973 110.504 56.758C110.115 58.4187 109.55 60.733 108.808 63.701C108.066 66.6337 107.253 70.2023 106.37 74.407C105.487 78.5763 104.868 81.0673 104.515 81.88C104.197 82.6573 103.879 83.046 103.561 83.046C102.819 83.046 101.883 82.3747 100.752 81.032C99.6567 79.654 99.109 78.541 99.109 77.693C99.109 76.845 99.8333 73.347 101.282 67.199C102.731 61.0157 103.632 55.963 103.985 52.041ZM147.601 44.25C148.626 44.25 149.756 44.78 150.993 45.84C152.265 46.9 152.901 47.7657 152.901 48.437C152.901 50.663 152.371 54.532 151.311 60.044C150.286 65.5207 148.961 70.7677 147.336 75.785C145.711 80.8023 144.244 83.311 142.937 83.311C142.407 83.311 141.718 83.0283 140.87 82.463C140.022 81.8623 139.457 81.1733 139.174 80.396C138.891 79.5833 138.344 77.9227 137.531 75.414C135.658 69.6547 133.892 64.8847 132.231 61.104C131.984 62.164 131.648 63.6657 131.224 65.609C130.835 67.5523 130.517 69.0893 130.27 70.22C130.023 71.3153 129.722 72.658 129.369 74.248C129.016 75.8027 128.698 77.0393 128.415 77.958C128.168 78.8767 127.885 79.7953 127.567 80.714C127.002 82.4453 126.472 83.311 125.977 83.311C125.27 83.311 124.352 82.675 123.221 81.403C122.09 80.0957 121.525 78.9827 121.525 78.064C121.525 77.11 122.532 72.181 124.546 63.277C126.595 54.373 127.708 48.7903 127.885 46.529C127.991 45.1863 128.397 44.515 129.104 44.515C129.705 44.515 130.464 44.8683 131.383 45.575C132.337 46.2817 133.15 47.1473 133.821 48.172C134.528 49.1613 135.782 52.4297 137.584 57.977C139.386 63.5243 140.817 67.4993 141.877 69.902C143.255 65.8033 144.527 59.62 145.693 51.352C146.152 48.066 146.453 46.0697 146.594 45.363C146.735 44.621 147.071 44.25 147.601 44.25ZM179.606 66.245C179.606 67.1637 178.528 67.9233 176.373 68.524C174.677 69.0187 172.733 69.4957 170.543 69.955C168.352 70.379 166.515 70.7853 165.031 71.174C161.921 71.916 160.013 72.287 159.307 72.287C158.6 72.287 157.858 71.81 157.081 70.856C156.303 69.8667 155.915 68.9303 155.915 68.047C155.915 67.0577 157.964 66.2097 162.063 65.503C166.197 64.7963 170.702 64.443 175.578 64.443C178.263 64.443 179.606 65.0437 179.606 66.245ZM182.746 75.043C182.746 72.5697 183.523 69.849 185.078 66.881C186.633 63.913 188.664 61.369 191.173 59.249C193.717 57.129 196.208 56.069 198.646 56.069C199.883 56.069 201.155 56.8817 202.462 58.507C203.769 60.097 204.423 61.528 204.423 62.8C204.423 63.7187 203.999 64.178 203.151 64.178C202.727 64.178 202.144 63.9837 201.402 63.595C200.66 63.2063 199.9 63.012 199.123 63.012C198.346 63.012 197.233 63.6833 195.784 65.026C194.371 66.3333 193.099 67.9233 191.968 69.796C190.873 71.6333 190.325 73.082 190.325 74.142C190.325 75.202 190.519 75.891 190.908 76.209C191.332 76.527 192.321 76.686 193.876 76.686C195.466 76.686 196.897 76.5447 198.169 76.262C199.476 75.9793 200.43 75.6967 201.031 75.414C201.667 75.096 202.232 74.937 202.727 74.937C203.716 74.937 204.211 75.361 204.211 76.209C204.211 77.7637 202.851 79.3537 200.13 80.979C197.409 82.569 194.689 83.364 191.968 83.364C190.237 83.364 188.258 82.41 186.032 80.502C183.841 78.5587 182.746 76.739 182.746 75.043Z" fill="#0F1B2F"/>
<path d="M103.985 52.041L104.981 52.1307L105.085 50.9784L103.93 51.0425L103.985 52.041ZM95.187 50.822L94.4061 51.4467L94.4113 51.4532L94.4166 51.4596L95.187 50.822ZM120.415 46.529L120.016 47.4461L120.016 47.4461L120.415 46.529ZM123.277 51.723L123.868 52.5294L123.885 52.517L123.902 52.5039L123.277 51.723ZM116.811 52.147L116.762 53.1458L116.762 53.1458L116.811 52.147ZM110.928 51.935L110.948 50.9352L109.531 50.9069L109.979 52.2512L110.928 51.935ZM110.504 56.758L109.535 56.5106L109.533 56.5203L109.53 56.5301L110.504 56.758ZM108.808 63.701L109.777 63.9463L109.778 63.9435L108.808 63.701ZM106.37 74.407L107.348 74.6143L107.349 74.6126L106.37 74.407ZM104.515 81.88L103.598 81.4813L103.594 81.4913L103.589 81.5014L104.515 81.88ZM100.752 81.032L99.9692 81.6542L99.978 81.6653L99.9871 81.6761L100.752 81.032ZM101.282 67.199L102.255 67.4284L102.256 67.4271L101.282 67.199ZM103.985 52.041L103.93 51.0425C100.089 51.2559 98.0479 51.359 97.731 51.359V52.359V53.359C98.1208 53.359 100.249 53.2501 104.04 53.0395L103.985 52.041ZM97.731 52.359V51.359C97.3167 51.359 96.7234 51.1101 95.9574 50.1844L95.187 50.822L94.4166 51.4596C95.3466 52.5833 96.4493 53.359 97.731 53.359V52.359ZM95.187 50.822L95.9679 50.1973C95.2322 49.2777 94.915 48.3965 94.915 47.536H93.915H92.915C92.915 48.9368 93.4458 50.2462 94.4061 51.4467L95.187 50.822ZM93.915 47.536H94.915C94.915 47.6773 94.7946 47.5582 95.3175 47.2886C95.8107 47.0342 96.6355 46.7844 97.8607 46.5738C100.291 46.1559 103.998 45.939 109.02 45.939V44.939V43.939C103.972 43.939 100.126 44.155 97.5218 44.6027C96.2295 44.8249 95.1662 45.1162 94.4007 45.5111C93.6648 45.8906 92.915 46.529 92.915 47.536H93.915ZM109.02 44.939V45.939C114.146 45.939 117.774 46.4711 120.016 47.4461L120.415 46.529L120.814 45.6119C118.18 44.4669 114.211 43.939 109.02 43.939V44.939ZM120.415 46.529L120.016 47.4461C122.381 48.4743 123.072 49.5194 123.072 50.398H124.072H125.072C125.072 48.2379 123.325 46.7037 120.814 45.6119L120.415 46.529ZM124.072 50.398H123.072C123.072 50.4302 123.062 50.6144 122.652 50.9421L123.277 51.723L123.902 52.5039C124.552 51.9836 125.072 51.2845 125.072 50.398H124.072ZM123.277 51.723L122.686 50.9166C122.364 51.1523 121.914 51.306 121.263 51.306V52.306V53.306C122.237 53.306 123.13 53.071 123.868 52.5294L123.277 51.723ZM121.263 52.306V51.306C120.478 51.306 119.017 51.2543 116.86 51.1482L116.811 52.147L116.762 53.1458C118.915 53.2517 120.422 53.306 121.263 53.306V52.306ZM116.811 52.147L116.86 51.1482C114.697 51.0418 112.726 50.9708 110.948 50.9352L110.928 51.935L110.908 52.9348C112.663 52.9699 114.614 53.0402 116.762 53.1458L116.811 52.147ZM110.928 51.935L109.979 52.2512C110.079 52.5504 110.14 52.934 110.14 53.419H111.14H112.14C112.14 52.7733 112.06 52.1676 111.877 51.6188L110.928 51.935ZM111.14 53.419H110.14C110.14 53.8374 109.965 54.8278 109.535 56.5106L110.504 56.758L111.473 57.0054C111.891 55.3669 112.14 54.1313 112.14 53.419H111.14ZM110.504 56.758L109.53 56.5301C109.143 58.1835 108.579 60.4922 107.838 63.4585L108.808 63.701L109.778 63.9435C110.521 60.9738 111.087 58.6538 111.478 56.9859L110.504 56.758ZM108.808 63.701L107.839 63.4557C107.092 66.4057 106.276 69.9885 105.391 74.2014L106.37 74.407L107.349 74.6126C108.23 70.4162 109.04 66.8616 109.777 63.9463L108.808 63.701ZM106.37 74.407L105.392 74.1997C104.951 76.2794 104.578 77.9319 104.273 79.1613C103.961 80.4185 103.736 81.1637 103.598 81.4813L104.515 81.88L105.432 82.2787C105.647 81.7836 105.908 80.877 106.214 79.6432C106.527 78.3816 106.906 76.7039 107.348 74.6143L106.37 74.407ZM104.515 81.88L103.589 81.5014C103.446 81.851 103.332 82.0382 103.264 82.1213C103.185 82.2178 103.281 82.046 103.561 82.046V83.046V84.046C104.159 84.046 104.573 83.6798 104.812 83.3877C105.062 83.0822 105.266 82.6863 105.441 82.2586L104.515 81.88ZM103.561 83.046V82.046C103.486 82.046 103.271 82.0065 102.885 81.7298C102.51 81.4607 102.054 81.0251 101.517 80.3879L100.752 81.032L99.9871 81.6761C100.581 82.3816 101.158 82.9529 101.72 83.3552C102.27 83.7499 102.894 84.046 103.561 84.046V83.046ZM100.752 81.032L101.535 80.4098C100.455 79.0514 100.109 78.1737 100.109 77.693H99.109H98.109C98.109 78.9083 98.8583 80.2566 99.9692 81.6542L100.752 81.032ZM99.109 77.693H100.109C100.109 77.5743 100.14 77.2727 100.231 76.7245C100.319 76.1995 100.452 75.5048 100.631 74.6363C100.991 72.9004 101.532 70.4991 102.255 67.4284L101.282 67.199L100.309 66.9696C99.5836 70.0469 99.0379 72.4686 98.673 74.2307C98.4907 75.1112 98.352 75.8343 98.2584 76.3957C98.1687 76.9341 98.109 77.3877 98.109 77.693H99.109ZM101.282 67.199L102.256 67.4271C103.709 61.2222 104.622 56.1187 104.981 52.1307L103.985 52.041L102.989 51.9513C102.642 55.8073 101.752 60.8092 100.308 66.9709L101.282 67.199ZM150.993 45.84L150.342 46.5993L150.353 46.6082L150.993 45.84ZM151.311 60.044L150.329 59.8551L150.328 59.8601L151.311 60.044ZM147.336 75.785L148.287 76.0932L148.287 76.0932L147.336 75.785ZM140.87 82.463L140.292 83.279L140.304 83.2872L140.315 83.2951L140.87 82.463ZM139.174 80.396L138.23 80.7246L138.234 80.7377L139.174 80.396ZM137.531 75.414L138.482 75.1058L138.482 75.1048L137.531 75.414ZM132.231 61.104L133.147 60.7018L131.939 57.9534L131.257 60.8768L132.231 61.104ZM131.224 65.609L130.247 65.3958L130.245 65.4043L130.244 65.4129L131.224 65.609ZM130.27 70.22L131.246 70.4403L131.247 70.4337L130.27 70.22ZM129.369 74.248L130.344 74.4696L130.345 74.4649L129.369 74.248ZM128.415 77.958L127.459 77.6639L127.454 77.6809L127.449 77.698L128.415 77.958ZM127.567 80.714L126.622 80.3869L126.619 80.3952L126.616 80.4036L127.567 80.714ZM123.221 81.403L122.465 82.0572L122.474 82.0674L123.221 81.403ZM124.546 63.277L123.572 63.0527L123.571 63.0564L124.546 63.277ZM127.885 46.529L126.888 46.4503L126.888 46.4511L127.885 46.529ZM131.383 45.575L130.773 46.3676L130.781 46.3732L130.788 46.3786L131.383 45.575ZM133.821 48.172L132.985 48.72L132.996 48.7369L133.007 48.7532L133.821 48.172ZM137.584 57.977L138.535 57.668L138.535 57.668L137.584 57.977ZM141.877 69.902L140.962 70.3056L142.003 72.6651L142.825 70.2207L141.877 69.902ZM145.693 51.352L146.683 51.4916L146.683 51.4904L145.693 51.352ZM146.594 45.363L147.575 45.5591L147.576 45.5501L146.594 45.363ZM147.601 44.25V45.25C148.281 45.25 149.186 45.6081 150.342 46.5993L150.993 45.84L151.644 45.0807C150.327 43.9519 148.97 43.25 147.601 43.25V44.25ZM150.993 45.84L150.353 46.6082C150.956 47.1111 151.367 47.5338 151.618 47.8763C151.88 48.2327 151.901 48.408 151.901 48.437H152.901H153.901C153.901 47.7947 153.604 47.2015 153.23 46.6922C152.846 46.169 152.302 45.6289 151.633 45.0718L150.993 45.84ZM152.901 48.437H151.901C151.901 50.5564 151.39 54.3396 150.329 59.8552L151.311 60.044L152.293 60.2328C153.352 54.7244 153.901 50.7696 153.901 48.437H152.901ZM151.311 60.044L150.328 59.8601C149.311 65.297 147.996 70.5024 146.385 75.4768L147.336 75.785L148.287 76.0932C149.927 71.0329 151.262 65.7443 152.294 60.2279L151.311 60.044ZM147.336 75.785L146.385 75.4768C145.579 77.9628 144.833 79.7637 144.154 80.9249C143.814 81.5069 143.518 81.8811 143.277 82.099C143.159 82.2052 143.071 82.2599 143.013 82.2868C142.985 82.2999 142.965 82.3057 142.954 82.3084C142.943 82.311 142.938 82.311 142.937 82.311V83.311V84.311C143.6 84.311 144.166 83.9912 144.618 83.5823C145.071 83.173 145.488 82.6065 145.881 81.9341C146.668 80.5866 147.467 78.6245 148.287 76.0932L147.336 75.785ZM142.937 83.311V82.311C142.716 82.311 142.236 82.1719 141.425 81.6309L140.87 82.463L140.315 83.2951C141.2 83.8848 142.098 84.311 142.937 84.311V83.311ZM140.87 82.463L141.448 81.647C140.723 81.1336 140.311 80.5964 140.114 80.0543L139.174 80.396L138.234 80.7377C138.602 81.7502 139.321 82.591 140.292 83.279L140.87 82.463ZM139.174 80.396L140.119 80.0675C139.84 79.2667 139.296 77.6164 138.482 75.1058L137.531 75.414L136.58 75.7222C137.392 78.229 137.943 79.9 138.23 80.7245L139.174 80.396ZM137.531 75.414L138.482 75.1048C136.603 69.327 134.825 64.5233 133.147 60.7018L132.231 61.104L131.316 61.5062C132.958 65.246 134.713 69.9823 136.58 75.7232L137.531 75.414ZM132.231 61.104L131.257 60.8768C131.008 61.9438 130.671 63.451 130.247 65.3958L131.224 65.609L132.201 65.8222C132.625 63.8804 132.959 62.3842 133.205 61.3312L132.231 61.104ZM131.224 65.609L130.244 65.4129C129.855 67.3538 129.539 68.8842 129.293 70.0063L130.27 70.22L131.247 70.4337C131.496 69.2945 131.816 67.7508 132.205 65.8051L131.224 65.609ZM130.27 70.22L129.295 69.9997C129.047 71.0966 128.746 72.4404 128.393 74.0311L129.369 74.248L130.345 74.4649C130.698 72.8756 130.999 71.5341 131.246 70.4403L130.27 70.22ZM129.369 74.248L128.394 74.0264C128.043 75.5703 127.731 76.7795 127.459 77.6639L128.415 77.958L129.371 78.2521C129.664 77.2991 129.988 76.0351 130.344 74.4696L129.369 74.248ZM128.415 77.958L127.449 77.698C127.208 78.5936 126.933 79.4899 126.622 80.3869L127.567 80.714L128.512 81.0411C128.838 80.1008 129.127 79.1597 129.381 78.218L128.415 77.958ZM127.567 80.714L126.616 80.4036C126.342 81.2437 126.097 81.8061 125.893 82.1396C125.79 82.3067 125.725 82.3713 125.709 82.3848C125.697 82.3949 125.792 82.311 125.977 82.311V83.311V84.311C126.409 84.311 126.756 84.1189 127 83.9126C127.24 83.7096 127.436 83.4497 127.598 83.1839C127.924 82.6518 128.227 81.9156 128.518 81.0244L127.567 80.714ZM125.977 83.311V82.311C125.914 82.311 125.709 82.2761 125.327 82.0118C124.958 81.7562 124.505 81.3426 123.969 80.7386L123.221 81.403L122.474 82.0674C123.067 82.7354 123.639 83.2758 124.189 83.6562C124.726 84.0279 125.333 84.311 125.977 84.311V83.311ZM123.221 81.403L123.977 80.7488C122.883 79.4828 122.525 78.6059 122.525 78.064H121.525H120.525C120.525 79.3594 121.298 80.7085 122.465 82.0572L123.221 81.403ZM121.525 78.064H122.525C122.525 77.9255 122.571 77.5241 122.7 76.7719C122.823 76.0517 123.009 75.0797 123.26 73.8519C123.762 71.3976 124.515 67.9473 125.521 63.4976L124.546 63.277L123.571 63.0564C122.563 67.5107 121.806 70.9769 121.301 73.4516C121.048 74.6883 120.857 75.6839 120.728 76.4345C120.605 77.153 120.525 77.7255 120.525 78.064H121.525ZM124.546 63.277L125.521 63.5013C127.564 54.6248 128.698 48.9591 128.882 46.6069L127.885 46.529L126.888 46.4511C126.719 48.6215 125.627 54.1212 123.572 63.0527L124.546 63.277ZM127.885 46.529L128.882 46.6077C128.93 45.9953 129.041 45.6751 129.125 45.5363C129.16 45.4786 129.173 45.4817 129.147 45.4972C129.117 45.5154 129.093 45.515 129.104 45.515V44.515V43.515C128.357 43.515 127.774 43.9053 127.414 44.5007C127.092 45.0332 126.946 45.72 126.888 46.4503L127.885 46.529ZM129.104 44.515V45.515C129.357 45.515 129.891 45.6887 130.773 46.3676L131.383 45.575L131.993 44.7824C131.038 44.0479 130.053 43.515 129.104 43.515V44.515ZM131.383 45.575L130.788 46.3786C131.644 47.0127 132.376 47.7909 132.985 48.72L133.821 48.172L134.658 47.624C133.924 46.5037 133.03 45.5506 131.978 44.7714L131.383 45.575ZM133.821 48.172L133.007 48.7532C133.275 49.1278 133.725 50.0723 134.358 51.7236C134.976 53.3343 135.734 55.5195 136.633 58.2859L137.584 57.977L138.535 57.668C137.632 54.8871 136.862 52.6645 136.225 51.0069C135.605 49.3898 135.074 48.2055 134.635 47.5908L133.821 48.172ZM137.584 57.977L136.633 58.2859C138.436 63.8364 139.88 67.853 140.962 70.3056L141.877 69.902L142.792 69.4984C141.754 67.1457 140.336 63.2123 138.535 57.668L137.584 57.977ZM141.877 69.902L142.825 70.2207C144.233 66.0324 145.515 59.7754 146.683 51.4916L145.693 51.352L144.703 51.2124C143.539 59.4646 142.277 65.5742 140.929 69.5833L141.877 69.902ZM145.693 51.352L146.683 51.4904C147.145 48.1909 147.441 46.23 147.575 45.5591L146.594 45.363L145.614 45.1669C145.465 45.9094 145.16 47.9411 144.703 51.2136L145.693 51.352ZM146.594 45.363L147.576 45.5501C147.601 45.419 147.631 45.3287 147.656 45.27C147.681 45.2117 147.697 45.1949 147.693 45.1992C147.687 45.2064 147.666 45.2248 147.634 45.2387C147.603 45.252 147.587 45.25 147.601 45.25V44.25V43.25C147.072 43.25 146.58 43.4487 146.21 43.8573C145.872 44.2315 145.701 44.7098 145.612 45.1759L146.594 45.363ZM176.373 68.524L176.104 67.5606L176.093 67.564L176.373 68.524ZM170.543 69.955L170.733 70.9368L170.74 70.9353L170.748 70.9337L170.543 69.955ZM165.031 71.174L165.263 72.1467L165.273 72.1441L165.284 72.1414L165.031 71.174ZM157.081 70.856L156.294 71.4738L156.3 71.4808L156.305 71.4877L157.081 70.856ZM162.063 65.503L161.894 64.5173L161.893 64.5175L162.063 65.503ZM179.606 66.245H178.606C178.606 66.2529 178.618 66.4069 178.221 66.6864C177.819 66.9701 177.137 67.2728 176.104 67.5607L176.373 68.524L176.641 69.4873C177.763 69.1746 178.698 68.7971 179.374 68.3211C180.055 67.8409 180.606 67.1557 180.606 66.245H179.606ZM176.373 68.524L176.093 67.564C174.427 68.0499 172.509 68.5209 170.337 68.9763L170.543 69.955L170.748 70.9337C172.957 70.4704 174.926 69.9875 176.653 69.484L176.373 68.524ZM170.543 69.955L170.353 68.9732C168.149 69.3997 166.289 69.8106 164.777 70.2066L165.031 71.174L165.284 72.1414C166.74 71.76 168.555 71.3583 170.733 70.9368L170.543 69.955ZM165.031 71.174L164.799 70.2013C163.25 70.5708 162.011 70.8455 161.077 71.0271C160.113 71.2146 159.55 71.287 159.307 71.287V72.287V73.287C159.77 73.287 160.514 73.1739 161.459 72.9904C162.432 72.801 163.702 72.5192 165.263 72.1467L165.031 71.174ZM159.307 72.287V71.287C159.063 71.287 158.578 71.1107 157.856 70.2243L157.081 70.856L156.305 71.4877C157.138 72.5093 158.137 73.287 159.307 73.287V72.287ZM157.081 70.856L157.867 70.2382C157.171 69.3521 156.915 68.6285 156.915 68.047H155.915H154.915C154.915 69.2322 155.436 70.3812 156.294 71.4738L157.081 70.856ZM155.915 68.047H156.915C156.915 68.1815 156.836 68.1928 156.966 68.0761C157.103 67.9538 157.37 67.7849 157.834 67.593C158.755 67.212 160.205 66.8381 162.233 66.4885L162.063 65.503L161.893 64.5175C159.822 64.8745 158.198 65.278 157.069 65.745C156.508 65.9771 156.007 66.2499 155.631 66.5869C155.249 66.9295 154.915 67.4179 154.915 68.047H155.915ZM162.063 65.503L162.231 66.4887C166.301 65.7929 170.749 65.443 175.578 65.443V64.443V63.443C170.654 63.443 166.092 63.7997 161.894 64.5173L162.063 65.503ZM175.578 64.443V65.443C176.877 65.443 177.714 65.5931 178.19 65.8063C178.417 65.9076 178.513 66.0018 178.552 66.0541C178.582 66.0944 178.606 66.1441 178.606 66.245H179.606H180.606C180.606 65.7452 180.461 65.2693 180.156 64.8591C179.859 64.461 179.452 64.1797 179.007 63.9807C178.141 63.5933 176.964 63.443 175.578 63.443V64.443ZM185.078 66.881L184.192 66.417L184.192 66.417L185.078 66.881ZM191.173 59.249L190.533 58.4808L190.527 58.4852L191.173 59.249ZM202.462 58.507L201.683 59.1338L201.689 59.1421L202.462 58.507ZM201.402 63.595L200.938 64.4808L200.938 64.4808L201.402 63.595ZM195.784 65.026L196.463 65.7601L196.464 65.7594L195.784 65.026ZM191.968 69.796L191.112 69.2791L191.109 69.2839L191.968 69.796ZM190.908 76.209L190.275 76.983L190.291 76.9963L190.308 77.009L190.908 76.209ZM198.169 76.262L197.958 75.2846L197.952 75.2858L198.169 76.262ZM201.031 75.414L201.457 76.3188L201.467 76.3138L201.478 76.3084L201.031 75.414ZM200.13 80.979L200.634 81.8424L200.643 81.8375L200.13 80.979ZM186.032 80.502L185.368 81.2501L185.375 81.2557L185.381 81.2613L186.032 80.502ZM182.746 75.043H183.746C183.746 72.7783 184.459 70.2183 185.964 67.345L185.078 66.881L184.192 66.417C182.588 69.4797 181.746 72.361 181.746 75.043H182.746ZM185.078 66.881L185.964 67.345C187.46 64.4892 189.41 62.0476 191.818 60.0128L191.173 59.249L190.527 58.4852C187.918 60.6904 185.805 63.3368 184.192 66.417L185.078 66.881ZM191.173 59.249L191.813 60.0172C194.242 57.9933 196.514 57.069 198.646 57.069V56.069V55.069C195.902 55.069 193.192 56.2647 190.533 58.4808L191.173 59.249ZM198.646 56.069V57.069C199.423 57.069 200.438 57.5866 201.683 59.1338L202.462 58.507L203.241 57.8802C201.871 56.1767 200.342 55.069 198.646 55.069V56.069ZM202.462 58.507L201.689 59.1421C202.934 60.6563 203.423 61.865 203.423 62.8H204.423H205.423C205.423 61.191 204.604 59.5377 203.234 57.8719L202.462 58.507ZM204.423 62.8H203.423C203.423 63.1242 203.346 63.1809 203.37 63.1552C203.408 63.1144 203.399 63.178 203.151 63.178V64.178V65.178C203.751 65.178 204.378 65.0119 204.84 64.5118C205.287 64.0268 205.423 63.3945 205.423 62.8H204.423ZM203.151 64.178V63.178C202.981 63.178 202.579 63.0825 201.866 62.7092L201.402 63.595L200.938 64.4808C201.709 64.8849 202.473 65.178 203.151 65.178V64.178ZM201.402 63.595L201.866 62.7092C200.992 62.2515 200.074 62.012 199.123 62.012V63.012V64.012C199.726 64.012 200.328 64.1612 200.938 64.4808L201.402 63.595ZM199.123 63.012V62.012C198.468 62.012 197.808 62.2857 197.189 62.6592C196.552 63.0433 195.856 63.5961 195.104 64.2926L195.784 65.026L196.464 65.7594C197.161 65.1132 197.745 64.659 198.222 64.3718C198.715 64.074 199.001 64.012 199.123 64.012V63.012ZM195.784 65.026L195.105 64.2919C193.614 65.671 192.285 67.3368 191.112 69.2791L191.968 69.796L192.824 70.3129C193.913 68.5098 195.127 66.9957 196.463 65.7601L195.784 65.026ZM191.968 69.796L191.109 69.2839C189.998 71.1477 189.325 72.7953 189.325 74.142H190.325H191.325C191.325 73.3687 191.747 72.1189 192.827 70.3081L191.968 69.796ZM190.325 74.142H189.325C189.325 74.7242 189.377 75.261 189.508 75.7252C189.638 76.1863 189.867 76.6496 190.275 76.983L190.908 76.209L191.541 75.435C191.56 75.4504 191.497 75.4102 191.433 75.1823C191.37 74.9575 191.325 74.6198 191.325 74.142H190.325ZM190.908 76.209L190.308 77.009C190.72 77.3182 191.273 77.4679 191.809 77.5541C192.377 77.6453 193.071 77.686 193.876 77.686V76.686V75.686C193.126 75.686 192.548 75.6472 192.127 75.5794C191.917 75.5457 191.762 75.5073 191.652 75.4702C191.538 75.4318 191.502 75.4047 191.508 75.409L190.908 76.209ZM193.876 76.686V77.686C195.524 77.686 197.029 77.5397 198.386 77.2382L198.169 76.262L197.952 75.2858C196.765 75.5496 195.408 75.686 193.876 75.686V76.686ZM198.169 76.262L198.38 77.2394C199.703 76.9534 200.749 76.6519 201.457 76.3188L201.031 75.414L200.605 74.5092C200.112 74.7414 199.25 75.0052 197.958 75.2846L198.169 76.262ZM201.031 75.414L201.478 76.3084C202.032 76.0316 202.44 75.937 202.727 75.937V74.937V73.937C202.024 73.937 201.302 74.1604 200.584 74.5196L201.031 75.414ZM202.727 74.937V75.937C203.102 75.937 203.197 76.0206 203.189 76.0143C203.182 76.008 203.181 76.0018 203.186 76.0149C203.194 76.0341 203.211 76.092 203.211 76.209H204.211H205.211C205.211 75.5871 205.022 74.9514 204.491 74.4957C203.989 74.0654 203.341 73.937 202.727 73.937V74.937ZM204.211 76.209H203.211C203.211 76.6763 203.01 77.2405 202.431 77.9174C201.848 78.5992 200.927 79.3379 199.617 80.1205L200.13 80.979L200.643 81.8375C202.053 80.9948 203.173 80.1258 203.951 79.2176C204.732 78.3045 205.211 77.2963 205.211 76.209H204.211ZM200.13 80.979L199.625 80.1156C197.033 81.6305 194.485 82.364 191.968 82.364V83.364V84.364C194.892 84.364 197.785 83.5075 200.634 81.8424L200.13 80.979ZM191.968 83.364V82.364C190.593 82.364 188.843 81.5944 186.683 79.7427L186.032 80.502L185.381 81.2613C187.673 83.2256 189.88 84.364 191.968 84.364V83.364ZM186.032 80.502L186.696 79.7539C184.571 77.8696 183.746 76.3022 183.746 75.043H182.746H181.746C181.746 77.1758 183.111 79.2477 185.368 81.2501L186.032 80.502Z" fill="#0F1B2F" mask="url(#path-4-outside-1_439_2)"/>
</svg>
