<svg width="261" height="115" viewBox="0 0 261 115" fill="none" xmlns="http://www.w3.org/2000/svg">
<path d="M39.6318 13.8335C41.4703 11.8232 44.4565 11.8232 46.2949 13.8335L50.6523 18.5972C52.4842 20.6004 52.4859 23.8416 50.6602 25.8491L21.1152 58.3042L50.6582 90.7622C52.486 92.7697 52.4822 96.011 50.6504 98.0142L46.293 102.779C44.4545 104.789 41.4682 104.789 39.6299 102.779L2.28027 61.9351C0.446465 59.9296 0.446425 56.6797 2.28027 54.6743L39.6318 13.8335Z" fill="white" stroke="white" stroke-width="0.19"/>
<path d="M223.6 13.8354C221.864 11.8202 219.042 11.8205 217.307 13.8354L213.2 18.604C211.474 20.6087 211.472 23.8509 213.192 25.8599L241.038 58.3452L213.194 90.8335C211.472 92.8426 211.476 96.0847 213.202 98.0894L217.308 102.857C219.043 104.872 221.865 104.872 223.601 102.857L258.8 61.978C260.528 59.9711 260.528 56.7203 258.8 54.7134L223.6 13.8354Z" fill="white" stroke="white" stroke-width="0.192188"/>
<path d="M60 107L89 8.00025" stroke="white" stroke-width="14" stroke-linecap="round"/>
<path d="M100.21 46.1822C96.034 46.4142 93.7527 46.5302 93.366 46.5302C92.438 46.5302 91.51 45.9696 90.582 44.8482C89.654 43.6882 89.19 42.4896 89.19 41.2522C89.19 39.3576 94.7 38.4102 105.72 38.4102C111.365 38.4102 115.522 38.9902 118.19 40.1502C120.858 41.3102 122.192 42.7216 122.192 44.3842C122.192 44.8869 121.902 45.3702 121.322 45.8342C120.742 46.2596 120.007 46.4722 119.118 46.4722C118.229 46.4722 116.605 46.4142 114.246 46.2982C111.887 46.1822 109.741 46.1049 107.808 46.0662C107.963 46.5302 108.04 47.0716 108.04 47.6902C108.04 48.3089 107.808 49.5269 107.344 51.3443C106.919 53.1616 106.3 55.6942 105.488 58.9422C104.676 62.1516 103.787 66.0569 102.82 70.6582C101.853 75.2209 101.177 77.9469 100.79 78.8362C100.442 79.6869 100.094 80.1122 99.746 80.1122C98.934 80.1122 97.9093 79.3776 96.672 77.9082C95.4733 76.4002 94.874 75.1822 94.874 74.2542C94.874 73.3262 95.6667 69.4982 97.252 62.7702C98.8373 56.0036 99.8233 50.4742 100.21 46.1822ZM147.941 37.6562C149.062 37.6562 150.299 38.2362 151.653 39.3962C153.045 40.5562 153.741 41.5036 153.741 42.2382C153.741 44.6742 153.161 48.9082 152.001 54.9402C150.879 60.9336 149.429 66.6756 147.651 72.1662C145.872 77.6569 144.267 80.4022 142.837 80.4022C142.257 80.4022 141.503 80.0929 140.575 79.4742C139.647 78.8169 139.028 78.0629 138.719 77.2122C138.409 76.3229 137.81 74.5056 136.921 71.7602C134.871 65.4576 132.938 60.2376 131.121 56.1002C130.85 57.2602 130.483 58.9036 130.019 61.0302C129.593 63.1569 129.245 64.8389 128.975 66.0762C128.704 67.2749 128.375 68.7442 127.989 70.4842C127.602 72.1856 127.254 73.5389 126.945 74.5442C126.674 75.5496 126.365 76.5549 126.017 77.5602C125.398 79.4549 124.818 80.4022 124.277 80.4022C123.503 80.4022 122.498 79.7062 121.261 78.3142C120.023 76.8836 119.405 75.6656 119.405 74.6602C119.405 73.6162 120.507 68.2222 122.711 58.4782C124.953 48.7342 126.171 42.6249 126.365 40.1502C126.481 38.6809 126.925 37.9462 127.699 37.9462C128.356 37.9462 129.187 38.3329 130.193 39.1062C131.237 39.8796 132.126 40.8269 132.861 41.9482C133.634 43.0309 135.007 46.6076 136.979 52.6782C138.951 58.7489 140.517 63.0989 141.677 65.7282C143.185 61.2429 144.577 54.4762 145.853 45.4282C146.355 41.8322 146.684 39.6476 146.839 38.8742C146.993 38.0622 147.361 37.6562 147.941 37.6562ZM182.965 61.7262C182.965 62.7316 181.785 63.5629 179.427 64.2202C177.571 64.7616 175.444 65.2836 173.047 65.7862C170.649 66.2502 168.639 66.6949 167.015 67.1202C163.612 67.9322 161.524 68.3382 160.751 68.3382C159.977 68.3382 159.165 67.8162 158.315 66.7722C157.464 65.6896 157.039 64.6649 157.039 63.6982C157.039 62.6156 159.281 61.6876 163.767 60.9142C168.291 60.1409 173.221 59.7542 178.557 59.7542C181.495 59.7542 182.965 60.4116 182.965 61.7262Z" fill="white"/>
<path d="M186.401 71.3542C186.401 68.6476 187.252 65.6702 188.953 62.4222C190.655 59.1742 192.878 56.3902 195.623 54.0702C198.407 51.7502 201.133 50.5902 203.801 50.5902C205.155 50.5902 206.547 51.4796 207.977 53.2582C209.408 54.9982 210.123 56.5642 210.123 57.9562C210.123 58.9616 209.659 59.4642 208.731 59.4642C208.267 59.4642 207.629 59.2516 206.817 58.8262C206.005 58.4009 205.174 58.1882 204.323 58.1882C203.473 58.1882 202.255 58.9229 200.669 60.3922C199.123 61.8229 197.731 63.5629 196.493 65.6122C195.295 67.6229 194.695 69.2082 194.695 70.3682C194.695 71.5282 194.908 72.2822 195.333 72.6303C195.797 72.9782 196.88 73.1522 198.581 73.1522C200.321 73.1522 201.887 72.9976 203.279 72.6882C204.71 72.3789 205.754 72.0696 206.411 71.7602C207.107 71.4122 207.726 71.2382 208.267 71.2382C209.35 71.2382 209.891 71.7022 209.891 72.6303C209.891 74.3316 208.403 76.0716 205.425 77.8502C202.448 79.5902 199.471 80.4602 196.493 80.4602C194.599 80.4602 192.433 79.4163 189.997 77.3283C187.6 75.2016 186.401 73.2102 186.401 71.3542Z" fill="#7D8BD3"/>
</svg>
