<svg width="118" height="177" viewBox="0 0 118 177" fill="none" xmlns="http://www.w3.org/2000/svg">
<path d="M0 29.5C0 13.2076 13.2076 0 29.5 0H59V59H29.5C13.2076 59 0 45.7924 0 29.5V29.5Z" fill="#F24E1E"/>
<path d="M0 88.5C0 72.2076 13.2076 59 29.5 59H59V118H29.5C13.2076 118 0 104.792 0 88.5V88.5Z" fill="#A259FF"/>
<path d="M0 147.5C0 131.208 13.2076 118 29.5 118H59V147.5C59 163.792 45.7924 177 29.5 177V177C13.2076 177 0 163.792 0 147.5V147.5Z" fill="#0ACF83"/>
<path d="M59 88.5C59 72.2076 72.2076 59 88.5 59V59C104.792 59 118 72.2076 118 88.5V88.5C118 104.792 104.792 118 88.5 118V118C72.2076 118 59 104.792 59 88.5V88.5Z" fill="#1ABCFE"/>
<path d="M118 29.5C118 13.2076 104.792 0 88.5 0H59V59H88.5C104.792 59 118 45.7924 118 29.5V29.5Z" fill="#FF7262"/>
</svg>
